<?xml version="1.0" encoding="UTF-8"?>
<svg xmlns="http://www.w3.org/2000/svg" version="1.1" viewBox="0 0 988 424">
  <!-- Generator: Adobe Illustrator 29.7.1, SVG Export Plug-In . SVG Version: 2.1.1 Build 8)  -->
  <defs>
    <style>
      .st0 {
        isolation: isolate;
      }

      .st1 {
        fill: #b37651;
      }

      .st2 {
        mix-blend-mode: multiply;
      }
    </style>
  </defs>
  <g class="st0">
    <g id="Layer_1">
      <g class="st2">
        <g>
          <path class="st1" d="M496.8,49.9c16.1,9.2,28.3,29,33.3,52.2,1.7-1.8,3.5-3.5,5.3-5.1-6-24.1-19.7-44.4-37.2-53.6l-1.5-.8-1.5.8c-17.5,9.2-31.1,29.5-37.2,53.6,1.8,1.6,3.6,3.3,5.4,5.1,4.9-23.2,17.2-43,33.3-52.2"/>
          <path class="st1" d="M476.2,103.7c.1-.5.2-1,.3-1.5.1-.6.3-1.2.5-1.8.9-3.3,1.9-6.6,3.1-9.7.3-.6.5-1.3.8-1.9.3-.6.5-1.2.8-1.9.6-1.3,1.2-2.6,1.8-3.8.3-.5.5-1.1.8-1.6.3-.6.6-1.1,1-1.7.3-.6.7-1.1,1-1.7.3-.5.7-1.1,1-1.6,2.8-4.2,6-7.9,9.4-11,4.9,4.3,9.2,10,12.7,16.6.5.9,1,1.9,1.5,2.9,1,2.1,2,4.3,2.8,6.6l.5,1.5c.3.8.6,1.7.8,2.5.1.4.2.8.4,1.2.7,2.3,1.4,4.7,1.9,7.2.1.6.3,1.2.4,1.8,0,.5.2.9.3,1.4l.3,2c.1.7.2,1.4.3,2.1.2,1.3.3,2.6.5,3.9,1.7-2.5,3.6-4.9,5.5-7.2-3.6-21.7-14-40.9-27.9-50.6-13.9,9.7-24.3,28.9-27.9,50.6,1.9,2.3,3.7,4.7,5.5,7.2.4-3.9,1-7.8,1.9-11.6"/>
          <path class="st1" d="M496.8,171.8c1.8-2,3.6-4.2,5.2-6.6h0c.4-13.3,4.2-27.3,11.3-40.4v-.3c0-19.3-6.3-38.2-16.5-49.9-10.2,11.7-16.5,30.6-16.5,49.9v.3c7.1,13.1,10.9,27,11.3,40.3,1.6,2.4,3.3,4.6,5.2,6.6M496.8,85.5c6.3,10.5,10.1,24.8,10.1,39s-3.7,27-10.1,36.8c-6.4-9.8-10.1-23-10.1-36.8s3.8-28.5,10.1-39"/>
          <path class="st1" d="M500.5,124.6c0-8.1-1.3-16.2-3.7-23.6-2.4,7.3-3.7,15.4-3.7,23.6s1.3,15.5,3.7,22.3c2.4-6.8,3.7-14.5,3.7-22.3"/>
          <path class="st1" d="M478.4,197.5c1-1.7,1.9-3.5,2.7-5.3-1.5-1.4-3-2.9-4.4-4.5-.2.5-.3.9-.5,1.4-.2.4-.3.9-.5,1.3-.2.5-.4.9-.6,1.3-19.4-1.3-39.5-15.4-51.8-36.9-12.7-22-15.6-48.4-7.4-65.8.6,0,1.2.1,1.8.2.6,0,1.2.2,1.7.3,1.9.3,3.8.8,5.7,1.4.6.2,1.1.3,1.7.5.5.2,1,.3,1.5.5.7.3,1.4.5,2.2.8.6.3,1.2.5,1.8.8.5.2,1.1.5,1.6.7.4.2.8.4,1.2.6.5.3,1.1.6,1.7.9.7.4,1.4.8,2.1,1.2,0,0,.1,0,.2.1.7.4,1.4.9,2.1,1.3.2.1.4.3.6.4.8.5,1.5,1,2.2,1.6.8.6,1.6,1.2,2.5,1.8,1,.7,1.9,1.5,2.9,2.4.6.5,1.2,1,1.8,1.5.8.7,1.6,1.5,2.4,2.3.7.7,1.4,1.3,2,2l.3.3c.3-2.4.7-4.7,1.1-7-4.1-3.9-8.3-7.2-12.8-10.1-.7-.4-1.4-.9-2-1.3-1.3-.8-2.6-1.5-3.8-2.2-.5-.3-1.1-.5-1.6-.8-4.6-2.3-9.3-4-14-5-.8-.2-1.5-.3-2.3-.4-.4,0-.7-.1-1.1-.2-.4,0-.7-.1-1.1-.1-.5,0-.9-.1-1.4-.2-.7,0-1.4-.1-2.1-.1-.8,0-1.5,0-2.2,0-11.1,19-8.8,49.4,5.8,74.6,14.2,24.6,37.7,40.1,60.2,39.8"/>
          <path class="st1" d="M483.5,185.6c.2-.7.4-1.3.5-2,.1-.6.3-1.2.4-1.8.1-.7.3-1.3.4-2,.1-.6.2-1.3.3-2,.1-1,.3-2.1.4-3.2,0-.6.1-1.1.2-1.7,0-.6,0-1.2.1-1.8,0-1,0-2.1,0-3.2v-.3c0-.9,0-1.7,0-2.6,0-.8,0-1.5-.1-2.3-.2-3.3-.7-6.6-1.3-10-.1-.5-.2-1-.3-1.5-.7-3.4-1.7-6.7-2.9-10.1-.3-.9-.6-1.8-1-2.7-.6-1.7-1.3-3.3-2.1-5-.2-.5-.5-1.1-.7-1.6-1.1-2.2-2.2-4.4-3.5-6.6,0,0,0,0,0-.1-1-1.8-2.1-3.6-3.3-5.3-.4-.6-.7-1.1-1.2-1.7-.5-.7-1-1.5-1.6-2.2-.2-.2-.3-.4-.5-.7-.3-.4-.6-.8-.9-1.2-1.4-1.8-2.7-3.4-4.2-5-.4,2.6-.7,5.3-.8,8,1.1,1.4,2.2,2.9,3.2,4.3.5.7,1,1.4,1.5,2.1.5.7,1,1.5,1.4,2.3.5.8,1,1.6,1.4,2.4.7,1.3,1.4,2.6,2.1,3.9.3.6.6,1.1.8,1.7,1.1,2.3,2.2,4.7,3,7.1.2.6.4,1.1.6,1.7.2.5.3.9.5,1.3h0c.6,2.7,1.3,5.3,2.2,7.9,0,0,0,.1,0,.2,0,0,0,0,0,0,.1.7.3,1.3.4,2,.1.7.3,1.3.4,2,.3,1.7.5,3.3.7,5,0,.6.1,1.2.1,1.8,0,0,0,.2,0,.3,0,.5,0,1,0,1.5,0,.4,0,.9,0,1.3,0,1.7,0,3.3,0,5,0,.6,0,1.2-.1,1.7,0,1.2-.2,2.3-.4,3.4,0,.7-.2,1.3-.3,2-.1.8-.3,1.5-.4,2.3,0,0,0,0,0,0,.8.9,1.5,1.8,2.3,2.7h0c.8.9,1.6,1.8,2.4,2.6"/>
          <path class="st1" d="M419.4,95.3c-5.4,15.7-2.1,37.8,8.7,56.6,10.4,18,27,30.8,43.2,33.5.4-1,.7-2.1,1-3.1-1.6-2.2-3.1-4.4-4.4-6.7,0,.5-.2,1-.3,1.5,0,.5-.2,1-.3,1.5-13-4-25.8-14.9-34.3-29.5-8.7-15.1-12.3-32.8-9.7-46.6.7.2,1.4.5,2.1.8.1,0,.3.1.4.2.6.2,1.1.5,1.7.7.8.4,1.6.8,2.4,1.2.6.3,1.1.6,1.7.9.1,0,.3.1.4.2.6.4,1.2.7,1.9,1.1.7.4,1.4.9,2.1,1.4.7.5,1.4,1,2,1.5,0,0,0,0,0,0,.7.5,1.3,1,1.9,1.5.7.5,1.3,1.1,2,1.7.5.4.9.8,1.4,1.2.4.4.8.8,1.3,1.2.2.2.5.4.7.7.6.6,1.2,1.2,1.7,1.8,0,0,.2.2.3.3.5.5.9,1,1.4,1.5.3.3.6.6.9,1,1.2,1.3,2.3,2.7,3.4,4.1,0,0,0,0,.1.1.5.6.9,1.2,1.4,1.9,0,.1.2.2.2.3,0-1,0-2,0-3,0-2.1,0-4.1.2-6.2-10.3-12.1-23.2-20.6-35.5-23"/>
          <path class="st1" d="M473.5,157.6s0,0,0,0c-.8-5.3-2.3-10.6-4.4-15.9h0c-1.4-3.6-3.1-7.1-5.1-10.5-.9-1.6-1.8-3.1-2.8-4.5,0,4.8.5,9.6,1.3,14.2h0c1.2,7.4,3.1,14.4,5.8,20.9h0c1.6,4.1,3.6,8,5.8,11.6.5-5,.3-10.3-.6-15.7"/>
          <path class="st1" d="M428.4,111c-.2,11.1,3.3,24,9.7,35.1,6.2,10.8,15.1,19.5,24.6,24.3,0-1.8,0-3.5,0-5.4-3.2-7.5-5.5-15.8-6.8-24.4-.6-1.2-1.3-2.4-2-3.6-6.4-11.2-15.8-20.6-25.5-26M456.2,159c-5-4.3-9.5-9.7-13-15.8-3.7-6.4-6.3-13.3-7.7-20.1,5.2,4.7,9.9,10.4,13.6,16.8,3.5,6.1,6,12.7,7.2,19.2"/>
          <path class="st1" d="M538.2,110.3c.7-.7,1.3-1.4,2-2,.8-.7,1.5-1.5,2.3-2.2.8-.7,1.6-1.4,2.4-2.1.7-.6,1.4-1.2,2.2-1.8,0,0,.1-.1.2-.2.8-.6,1.6-1.2,2.5-1.8.6-.4,1.2-.9,1.8-1.3.3-.2.5-.3.7-.5,1-.6,2-1.3,3-1.8.6-.3,1.1-.6,1.6-.9.6-.3,1.2-.6,1.7-.9.4-.2.8-.4,1.2-.6.5-.3,1.1-.5,1.6-.7.6-.3,1.2-.5,1.8-.8.7-.3,1.4-.6,2.2-.8.5-.2,1-.4,1.5-.5.6-.2,1.2-.4,1.7-.5,1.9-.6,3.8-1,5.7-1.4.6,0,1.1-.2,1.7-.3.6,0,1.2-.1,1.8-.2,8.1,17.4,5.3,43.8-7.4,65.8-12.4,21.4-32.4,35.6-51.9,36.9-.2-.4-.4-.9-.6-1.3-.2-.4-.4-.9-.5-1.3-.2-.5-.4-.9-.6-1.4-1.4,1.6-2.8,3.1-4.4,4.5.8,1.8,1.7,3.6,2.7,5.3,22.6.2,46.1-15.3,60.2-39.8,14.6-25.2,16.9-55.6,5.8-74.6-.7,0-1.5,0-2.2,0-.7,0-1.4,0-2.1.1-1.2.1-2.5.3-3.8.5-.2,0-.3,0-.5,0-.2,0-.5,0-.7.1-.4,0-.9.2-1.3.3,0,0,0,0-.1,0-.7.1-1.4.3-2,.5-1.2.3-2.3.7-3.5,1.1-.5.2-1,.3-1.5.5-2.6.9-5.2,2.1-7.7,3.4-.7.3-1.4.7-2,1.1-1.8,1-3.6,2.1-5.4,3.3-.3.2-.7.5-1,.7-.6.4-1.2.8-1.8,1.3-.7.5-1.3,1-2,1.5-1.4,1-2.7,2.1-4,3.3-.5.4-1,.8-1.4,1.3-.5.4-.9.8-1.4,1.3.4,2.3.8,4.7,1.1,7,0,0,.1-.2.3-.3"/>
          <path class="st1" d="M507.8,172.4c0,1.2.2,2.3.3,3.4,0,.7.2,1.4.3,2.1.1.7.2,1.3.3,2,.1.7.3,1.3.4,1.9.3,1.3.6,2.6,1,3.8.8-.8,1.6-1.7,2.4-2.6.8-.9,1.5-1.8,2.3-2.7h0c-.2-.8-.3-1.6-.4-2.4-.1-.6-.2-1.3-.3-1.9,0-.3,0-.5,0-.8,0-.6-.1-1.3-.2-2,0-.8-.1-1.6-.2-2.4,0-1.6,0-3.3,0-5,0-.4,0-.9,0-1.3,0-.5,0-1.1,0-1.6,0,0,0,0,0,0,0-.7.1-1.4.2-2,.1-1.6.4-3.2.7-4.8.1-.7.2-1.3.4-2,.1-.7.3-1.3.4-2,0,0,0,0,0,0h0c0,0,0,0,0,0,0-.2.2-.5.2-.7.2-.6.4-1.2.6-1.9.3-1.1.6-2.2.9-3.3.2-.6.3-1.3.5-1.9,0,0,0,0,0,0,.1-.4.2-.7.4-1.1.3-.7.5-1.5.8-2.2,0,0,0-.1,0-.2.2-.5.4-1,.6-1.6.4-1,.8-1.9,1.2-2.9.3-.7.6-1.3.9-2,.3-.6.6-1.3,1-1.9.3-.6.7-1.3,1-1.9.4-.7.7-1.3,1.1-2,.5-.8.9-1.6,1.4-2.4.5-.9,1.1-1.7,1.6-2.5.4-.6.8-1.2,1.2-1.8.3-.4.6-.8.9-1.2.4-.5.8-1.1,1.2-1.6.4-.5.8-1.1,1.2-1.6-.2-2.7-.5-5.3-.8-7.9-2,2.2-3.9,4.5-5.6,6.9-.3.5-.7.9-1,1.4-.7.9-1.4,1.9-2,2.9-.5.8-1.1,1.6-1.6,2.5-.5.8-1,1.6-1.4,2.4h0s0,0,0,0c0,0,0,0,0,0-1.2,2.2-2.4,4.3-3.5,6.6-.3.5-.5,1.1-.7,1.6-.7,1.6-1.4,3.3-2.1,5-.3.9-.7,1.8-1,2.7-.5,1.4-.9,2.7-1.3,4.1-.3.9-.5,1.9-.8,2.8-.2.9-.5,1.8-.7,2.7,0,0,0,.1,0,.2-.8,3.8-1.4,7.6-1.7,11.3,0,.8-.1,1.7-.1,2.6,0,1.1,0,2.1,0,3.2h0c0,1,0,2,0,3,0,.5,0,.9,0,1.3"/>
          <path class="st1" d="M521.2,182.2c.3,1.1.6,2.1,1,3.1,16.2-2.7,32.9-15.5,43.2-33.5,10.8-18.7,14.1-40.8,8.7-56.6-12.3,2.4-25.3,11-35.5,23,.1,2.1.2,4.1.2,6.2s0,2,0,3c0-.1.1-.2.2-.3.5-.6.9-1.2,1.4-1.9,0,0,0,0,.1-.1,1.1-1.4,2.2-2.8,3.4-4.1.3-.3.6-.7.9-1,.4-.5.9-1,1.4-1.5,0,0,.2-.2.3-.3.6-.6,1.1-1.2,1.7-1.8.2-.2.5-.5.7-.7.5-.5.9-.9,1.4-1.3.5-.5,1.1-.9,1.6-1.4.5-.5,1.1-.9,1.6-1.3.7-.5,1.4-1.1,2.1-1.6.7-.5,1.3-1,2-1.4.7-.5,1.4-.9,2.1-1.4.6-.4,1.2-.8,1.9-1.1,2.2-1.3,4.4-2.4,6.6-3.2.7-.3,1.4-.5,2.1-.8,2.6,13.8-.9,31.4-9.7,46.6-8.4,14.6-21.2,25.5-34.3,29.5-.2-.7-.3-1.4-.4-2.1,0-.3,0-.6-.1-.8h0c-1.4,2.3-2.8,4.5-4.4,6.7"/>
          <path class="st1" d="M524.6,141.6h0c-2.1,5.3-3.6,10.6-4.4,15.9,0,0,0,0,0,0-.9,5.4-1.1,10.7-.6,15.7.5-.8,1-1.7,1.5-2.5.1-.2.2-.4.3-.6.5-.8.9-1.6,1.3-2.5.5-1,.9-2,1.4-2.9.4-1,.9-2,1.3-3,0,0,0,0,0,0,2.7-6.5,4.6-13.5,5.8-20.9h0c.7-4.6,1.2-9.3,1.3-14.2-1,1.5-1.9,3-2.8,4.6-2,3.4-3.7,6.9-5.1,10.4"/>
          <path class="st1" d="M537.7,140.5c-1.3,8.7-3.6,16.9-6.8,24.5t0,0s0,0,0,0c0,1.8,0,3.6,0,5.3,9.4-4.8,18.3-13.5,24.6-24.3,6.4-11.2,9.9-24,9.7-35.1-9.7,5.4-19.1,14.8-25.6,26-.7,1.2-1.3,2.4-1.9,3.5h0ZM544.6,139.8c3.7-6.4,8.4-12.1,13.5-16.8-1.4,6.8-4.1,13.8-7.7,20.1-3.5,6.1-8,11.6-13,15.8,1.2-6.4,3.7-13.1,7.2-19.2"/>
        </g>
      </g>
      <g class="st2">
        <g>
          <path class="st1" d="M282.6,360.9c1.6-.9,3.3-1.3,5.3-1.3,2.9,0,5.4,1,7.3,3.1l2.4-2.3c-1.2-1.3-2.6-2.4-4.3-3-1.7-.7-3.6-1-5.6-1s-5,.6-7.1,1.7c-2.1,1.2-3.8,2.7-5,4.8-1.2,2-1.8,4.3-1.8,6.8s.6,4.8,1.8,6.8c1.2,2,2.8,3.6,4.9,4.8,2.1,1.2,4.5,1.7,7.1,1.7s3.9-.3,5.6-1c1.7-.7,3.1-1.7,4.3-3.1l-2.4-2.3c-2,2.1-4.4,3.1-7.3,3.1s-3.7-.4-5.3-1.3c-1.6-.9-2.8-2.1-3.7-3.6-.9-1.5-1.3-3.2-1.3-5.1s.4-3.6,1.3-5.1c.9-1.5,2.1-2.7,3.7-3.6"/>
          <polygon class="st1" points="338.8 367.8 323.8 367.8 323.8 356.6 320.1 356.6 320.1 382.7 323.8 382.7 323.8 371 338.8 371 338.8 382.7 342.6 382.7 342.6 356.6 338.8 356.6 338.8 367.8"/>
          <path class="st1" d="M386.4,358c-2.1-1.2-4.5-1.7-7.1-1.7s-5,.6-7.1,1.7c-2.1,1.2-3.8,2.8-5,4.8-1.2,2-1.8,4.3-1.8,6.8s.6,4.8,1.8,6.8c1.2,2,2.9,3.6,5,4.8,2.1,1.2,4.5,1.7,7.1,1.7s5-.6,7.1-1.7c2.1-1.2,3.8-2.7,5-4.8,1.2-2,1.8-4.3,1.8-6.8s-.6-4.8-1.8-6.8c-1.2-2-2.8-3.6-5-4.8M388.1,374.7c-.9,1.5-2.1,2.7-3.6,3.6-1.5.9-3.2,1.3-5.2,1.3s-3.6-.4-5.2-1.3c-1.6-.9-2.8-2.1-3.7-3.6-.9-1.5-1.3-3.2-1.3-5.1s.4-3.6,1.3-5.1c.9-1.5,2.1-2.7,3.7-3.6,1.6-.9,3.3-1.3,5.2-1.3s3.6.4,5.2,1.3c1.5.9,2.7,2.1,3.6,3.6.9,1.5,1.3,3.2,1.3,5.1s-.4,3.6-1.3,5.1"/>
          <path class="st1" d="M422.6,360.9c1.6-.9,3.3-1.3,5.3-1.3,2.9,0,5.4,1,7.3,3.1l2.4-2.3c-1.2-1.3-2.6-2.4-4.3-3-1.7-.7-3.6-1-5.6-1s-5,.6-7.1,1.7c-2.1,1.2-3.8,2.7-5,4.8-1.2,2-1.8,4.3-1.8,6.8s.6,4.8,1.8,6.8c1.2,2,2.8,3.6,4.9,4.8,2.1,1.2,4.5,1.7,7.1,1.7s3.9-.3,5.6-1c1.7-.7,3.1-1.7,4.3-3.1l-2.4-2.3c-2,2.1-4.4,3.1-7.3,3.1s-3.7-.4-5.3-1.3c-1.6-.9-2.8-2.1-3.7-3.6-.9-1.5-1.3-3.2-1.3-5.1s.4-3.6,1.3-5.1c.9-1.5,2.1-2.7,3.7-3.6"/>
          <path class="st1" d="M478.4,358c-2.1-1.2-4.5-1.7-7.1-1.7s-5,.6-7.1,1.7c-2.1,1.2-3.8,2.8-5,4.8-1.2,2-1.8,4.3-1.8,6.8s.6,4.8,1.8,6.8c1.2,2,2.9,3.6,5,4.8,2.1,1.2,4.5,1.7,7.1,1.7s5-.6,7.1-1.7c2.1-1.2,3.8-2.7,5-4.8,1.2-2,1.8-4.3,1.8-6.8s-.6-4.8-1.8-6.8c-1.2-2-2.8-3.6-5-4.8M480.1,374.7c-.9,1.5-2.1,2.7-3.6,3.6-1.5.9-3.3,1.3-5.2,1.3s-3.6-.4-5.2-1.3c-1.6-.9-2.8-2.1-3.7-3.6-.9-1.5-1.3-3.2-1.3-5.1s.4-3.6,1.3-5.1c.9-1.5,2.1-2.7,3.7-3.6,1.6-.9,3.3-1.3,5.2-1.3s3.6.4,5.2,1.3c1.5.9,2.7,2.1,3.6,3.6.9,1.5,1.3,3.2,1.3,5.1s-.4,3.6-1.3,5.1"/>
          <polygon class="st1" points="511.8 356.6 508 356.6 508 382.7 525.9 382.7 525.9 379.4 511.8 379.4 511.8 356.6"/>
          <path class="st1" d="M555.3,356.6l-11.8,26.1h3.8l2.9-6.5h13.9l2.9,6.5h3.9l-11.9-26.1h-3.7ZM551.5,373.2l5.6-12.8,5.6,12.8h-11.3Z"/>
          <polygon class="st1" points="586.8 359.8 595.7 359.8 595.7 382.7 599.4 382.7 599.4 359.8 608.4 359.8 608.4 356.6 586.8 356.6 586.8 359.8"/>
          <path class="st1" d="M717.8,370.8c1-1.4,1.5-3.1,1.5-5.1s-1-5.1-2.9-6.7c-1.9-1.6-4.6-2.4-8-2.4h-10.2v26.1h3.7v-7.9h6.5c.4,0,.9,0,1.6,0l5.6,8h4.1l-6.2-8.8c1.8-.6,3.3-1.7,4.2-3.1M708.3,371.6h-6.3v-11.7h6.3c2.4,0,4.2.5,5.4,1.5,1.2,1,1.9,2.5,1.9,4.3s-.6,3.3-1.9,4.4c-1.2,1-3,1.5-5.4,1.5"/>
          <rect class="st1" x="627.9" y="356.6" width="3.7" height="26.1"/>
          <polygon class="st1" points="660.3 371 673.4 371 673.4 367.8 660.3 367.8 660.3 359.8 675 359.8 675 356.6 656.6 356.6 656.6 382.7 675.5 382.7 675.5 379.4 660.3 379.4 660.3 371"/>
        </g>
      </g>
      <g class="st2">
        <g>
          <path class="st1" d="M156.9,235c-2.8-3.6-6.5-6.3-11.2-8-4.7-1.7-9.9-2.6-15.7-2.6s-7.6.1-11.3.4c-3.8.3-6.9.5-9.5.5s-6.5,0-9.6-.2c-3.1-.1-5.9-.2-8.4-.2s-.3.3-.3.9,0,.9.3.9c3.5,0,6.1.3,7.9.8,1.8.6,2.9,1.6,3.5,3,.5,1.5.8,3.6.8,6.5v69.5c0,2.9-.3,5.1-.8,6.6-.6,1.5-1.7,2.5-3.5,3-1.8.5-4.4.8-7.9.8s-.3.3-.3.9,0,.9.3.9c2.5,0,5.3,0,8.5-.2,3.2,0,6.4-.2,9.7-.2s8.5,0,12.2.2c3.8.1,7.2.2,10.4.2s.4-.3.4-.9-.1-.9-.4-.9c-4.8,0-8.4-.3-10.8-.9-2.4-.6-4-1.7-4.7-3.2-.8-1.6-1.1-3.8-1.1-6.8v-68.6c0-3.1.3-5.4.9-6.9s1.7-2.5,3.2-2.9c1.6-.4,3.7-.6,6.5-.6,4.3,0,8.1,1,11.4,3,3.3,2,5.9,4.9,7.7,8.6,1.9,3.7,2.8,8.3,2.8,13.7s-1,10.3-3,14c-2,3.8-4.6,6.5-7.8,8.3-3.2,1.8-6.7,2.7-10.5,2.7s-1.5,0-2.5-.2c-1,0-1.9-.2-2.8-.5-.3,0-.5.2-.7.8-.1.7,0,1,.4,1.1,1.1.3,2.3.5,3.5.6,1.3.1,2.5.1,3.7.1,3.8,0,7.7-.6,11.6-1.8,4-1.2,7.6-3.1,10.8-5.6s5.8-5.7,7.7-9.5c1.9-3.8,2.9-8.3,2.9-13.5-.1-5.8-1.6-10.5-4.4-14.1"/>
          <path class="st1" d="M265.7,317c-1.9,0-3.7-.5-5.4-1.6-1.7-1.1-3.4-3-5.2-5.7-1.8-2.8-3.8-6.6-6.2-11.5l-36-74.3c-.1-.4-.5-.6-1.1-.5-.6,0-1,.2-1.1.5l-32,73.7c-2.2,5.2-4.2,9.2-6.1,12-1.9,2.8-3.8,4.7-5.8,5.8-2,1.1-4.4,1.6-7.1,1.6s-.6.3-.6.9.2.9.6.9c3.2,0,5.9,0,8.2-.3,2.3-.2,5.2-.3,8.9-.3s7,0,9.5.3c2.5.2,5.3.3,8.3.3s.8-.3.8-.9-.3-.9-.8-.9c-6.3,0-10.6-1.5-12.9-4.4-2.3-3-2.2-7.5.5-13.6l12.2-28.4h27.8l16.8,34.8c2.2,4.6,2.8,7.7,1.7,9.2-1.1,1.6-4.1,2.3-9,2.3s-.6.3-.6.9.2.9.6.9c2.9,0,5.5,0,7.9-.3,2.4-.2,5.1-.3,8.3-.3s5.9,0,8.9.3c3.1.2,6,.3,8.9.3s.8-.3.8-.9-.3-.9-.8-.9M195.9,267.1l11.6-27,13,27h-24.6Z"/>
          <path class="st1" d="M343.7,294.1c-.6,0-.8,0-.8.4-1.3,6.3-4,11.4-8.1,15.2-4.1,3.8-9.4,5.7-15.9,5.7h-12.8c-3.1,0-5.4-.2-7-.7-1.6-.5-2.6-1.3-3.2-2.6-.6-1.3-.8-3.3-.8-6v-68.8c0-2.9.3-5.1.9-6.6.6-1.5,1.7-2.5,3.5-3.1,1.7-.5,4.3-.8,7.8-.8s.3-.3.3-.9,0-.9-.3-.9c-2.4,0-5.1,0-8.2.2-3.1.1-6.4.2-10,.2s-6.7,0-9.8-.2c-3.2-.1-5.9-.2-8.3-.2s-.3.3-.3.9,0,.9.3.9c3.5,0,6.1.3,7.9.8,1.7.6,2.9,1.6,3.5,3,.6,1.5.9,3.6.9,6.5v69.5c0,2.9-.3,5.1-.9,6.6-.6,1.5-1.8,2.5-3.5,3-1.8.5-4.4.8-7.9.8s-.3.3-.3.9,0,.9.3.9h70c1.5,0,2.3-.8,2.3-2.3,0-3.5.2-7.3.4-11.4.3-4.1.6-7.6.9-10.5,0-.3-.3-.5-.8-.5"/>
          <path class="st1" d="M469.6,318.8c.2,0,.3-.3.3-.9s-.1-.9-.3-.9c-3.5,0-6.1-.2-7.8-.8-1.7-.5-2.9-1.5-3.5-3-.6-1.5-1-3.7-1.2-6.6l-3.2-69.1c-.1-4.1,1-6.9,3.2-8.5,2.2-1.6,5.7-2.3,10.5-2.3s.3-.3.3-.9-.1-.9-.3-.9c-2,0-4,0-5.9.1-1.9.1-4.3.2-7.1.2s-2.6,0-3.7-.2c-1.1,0-1.9-.1-2.6-.1-1,0-1.9.3-2.6,1-.7.7-1.4,1.6-1.9,2.8l-31.4,71.8-33.4-67.8c-1.6-3.3-2.8-5.4-3.6-6.4-.8-1-1.9-1.4-3.3-1.4s-2,0-3.5.1c-1.6.1-3.3.2-5.2.2s-3.1,0-5-.2c-2,0-3.8-.1-5.6-.1s-.3.3-.3.9,0,.9.3.9c5.3,0,9.6,2.6,12.9,7.6l-1.4,67.3c0,5.2-1.2,9.1-3.2,11.6-2.1,2.5-5.2,3.8-9.4,3.8s-.3.3-.3.9,0,.9.3.9c2.1,0,4.4,0,6.8-.1,2.4,0,5-.2,7.7-.2s5.5,0,7.8.2c2.3.1,4.6.1,6.8.1s.4-.3.4-.9-.1-.9-.4-.9c-4.6,0-7.9-1.3-9.8-3.8-2-2.5-2.9-6.4-2.8-11.6l1.2-60.5,37.4,76.6c.2.4.6.6,1.3.6s1-.2,1.1-.6l33.2-77.1,2.8,66c.3,4.3-.3,7.1-1.7,8.4-1.4,1.3-4.6,2-9.5,2s-.5.3-.5.9.2.9.5.9c2.3,0,4.9,0,7.8-.1,2.9,0,6-.2,9.3-.2s6.8,0,9.9.2c3.1.1,5.9.1,8.4.1"/>
          <path class="st1" d="M578.8,317c-1.9,0-3.7-.5-5.4-1.6-1.7-1.1-3.4-3-5.2-5.7-1.8-2.8-3.8-6.6-6.2-11.5l-36-74.3c-.1-.4-.5-.6-1.1-.5-.6,0-1,.2-1,.5l-32,73.7c-2.2,5.2-4.2,9.2-6.1,12-1.9,2.8-3.8,4.7-5.8,5.8-2,1.1-4.4,1.6-7.1,1.6s-.6.3-.6.9.2.9.6.9c3.2,0,5.9,0,8.2-.3,2.3-.2,5.2-.3,8.9-.3s7,0,9.5.3c2.5.2,5.3.3,8.3.3s.7-.3.7-.9-.3-.9-.7-.9c-6.3,0-10.6-1.5-12.9-4.4-2.3-3-2.2-7.5.4-13.6l12.2-28.4h27.8l16.8,34.8c2.2,4.6,2.8,7.7,1.7,9.2-1.1,1.6-4.1,2.3-9,2.3s-.6.3-.6.9.2.9.6.9c2.9,0,5.5,0,7.9-.3,2.4-.2,5.1-.3,8.3-.3s5.9,0,8.9.3c3.1.2,6,.3,8.9.3s.8-.3.8-.9-.3-.9-.8-.9M509,267.1l11.6-27,13,27h-24.6Z"/>
          <path class="st1" d="M651.3,230.6c-7.9-4-17.1-6-27.7-6s-6.2.1-10.1.4c-4,.3-7.6.4-11,.4s-6.6,0-9.7-.2c-3.1-.1-5.8-.2-8.3-.2s-.5.3-.5.9.1.9.5.9c3.5,0,6.1.3,7.8.8,1.7.6,2.9,1.6,3.5,3,.6,1.5.9,3.6.9,6.5v69.5c0,2.9-.3,5.1-.9,6.6-.6,1.5-1.8,2.5-3.6,3-1.8.5-4.5.8-8,.8s-.3.3-.3.9,0,.9.3.9c2.5,0,5.3,0,8.5-.1,3.2,0,6.4-.2,9.8-.2s7.8.2,12.2.4c4.4.3,8.1.5,11.1.5,6.8,0,13.3-1.1,19.4-3.5,6.1-2.3,11.5-5.6,16.2-9.8,4.7-4.3,8.4-9.4,11-15.5,2.7-6.1,4-12.8,4-20.4s-2.2-16.4-6.6-23.3c-4.4-6.9-10.5-12.4-18.4-16.4M657.7,297.1c-3.3,6.5-7.8,11.3-13.6,14.6-5.8,3.3-12.4,5-19.9,5s-10.8-.9-12.8-2.9c-2-1.9-3-4.9-3-8.9v-67.6c0-4.4,1.3-7.2,3.8-8.4,2.6-1.2,6.8-1.8,12.8-1.8s14.3,2.1,19.9,6.2c5.6,4.2,9.9,9.7,13,16.7,3.1,7,4.7,14.8,4.7,23.5s-1.7,17-5,23.5"/>
          <path class="st1" d="M778.7,238c-4.1-4.5-9.1-8.1-14.9-10.7-5.9-2.7-12.5-4-19.9-4s-12.3,1-18.5,3c-6.2,2-11.9,5-17.1,9.1-5.2,4.1-9.4,9.1-12.5,15.2-3.2,6.1-4.7,13.2-4.7,21.3s1.1,12.8,3.4,18.7c2.3,5.9,5.5,11,9.6,15.5,4.2,4.5,9.2,8,15,10.6,5.9,2.6,12.4,3.8,19.6,3.8s13.8-1.3,20.2-3.8c6.4-2.6,12-6.1,16.8-10.6,4.9-4.5,8.7-9.8,11.5-15.8,2.8-6,4.2-12.5,4.2-19.5s-1.1-11.9-3.2-17.6c-2.2-5.7-5.3-10.8-9.4-15.3M773.2,298.1c-3,6.3-7,11-12.2,14.3-5.2,3.3-10.9,4.9-17.2,4.9s-11.1-1.3-15.9-3.8c-4.8-2.6-9-6.1-12.5-10.7-3.5-4.6-6.2-10-8-16.1-1.9-6.2-2.8-12.8-2.8-19.9,0-12.3,2.9-22,8.6-29.1,5.8-7.1,13.9-10.7,24.4-10.7s15.3,2.1,21.3,6.2c6,4.2,10.6,9.9,13.8,17.1,3.3,7.3,4.9,15.5,4.9,24.9s-1.5,16.8-4.4,23.1"/>
          <path class="st1" d="M902.3,317c-4.1,0-8.4-1.6-12.9-4.9-4.5-3.3-9.7-8.6-15.5-16.1-5.7-7.2-12.6-16.9-20.7-29,2-1.1,3.9-2.4,5.6-4,3-2.6,5.3-5.6,7.1-9,1.7-3.4,2.6-7,2.6-10.7,0-5.9-2.3-10.5-6.8-13.9-4.6-3.4-11.1-5-19.8-5s-5.8.1-9.3.5c-3.5.3-6.6.4-9.3.4s-6.6,0-9.7-.2c-3.1-.1-5.8-.2-8.3-.2s-.3.3-.3.9,0,.9.3.9c3.5,0,6.1.3,7.8.8,1.7.6,2.9,1.6,3.5,3,.6,1.5.9,3.6.9,6.5v69.5c0,2.9-.3,5.1-1,6.6-.7,1.5-1.9,2.5-3.6,3-1.8.5-4.3.8-7.7.8s-.4.3-.4.9.1.9.4.9c2.5,0,5.3,0,8.4-.1,3.1,0,6.4-.2,9.8-.2s6.9,0,9.9.2,5.8.1,8.3.1.5-.3.5-.9-.2-.9-.5-.9c-3.5,0-6.1-.2-7.9-.8-1.8-.5-2.9-1.5-3.5-3-.6-1.5-.8-3.7-.8-6.6v-35.4c1.1.1,2.3.2,3.6.2,1.3,0,2.6,0,3.8,0,2.3,0,4.5-.3,6.7-.7,6,9.6,11.5,17.9,16.3,24.9,5.1,7.4,9.5,13.1,13.1,17.1,3.7,4,6.3,6,7.9,6h21.6c.3,0,.5-.3.5-.9s-.1-.9-.5-.9M833.9,267.6c-1.7-.1-3.2-.3-4.6-.4v-29.9c0-3,.3-5.3,1-6.8.6-1.5,1.7-2.5,3.1-2.9,1.4-.4,3.3-.7,5.7-.7s6.1.6,8.6,1.9c2.6,1.3,4.6,3.5,6.1,6.6,1.5,3.2,2.3,7.6,2.3,13.3s-1.4,11.9-4.1,14.8c-2.8,2.9-7.3,4.3-13.7,4.3s-2.6,0-4.3-.2"/>
        </g>
      </g>
    </g>
  </g>
</svg>